<svg id="attack" enable-background="new 0 0 300 300" height="512" viewBox="0 0 300 300" width="512" xmlns="http://www.w3.org/2000/svg"><g><circle cx="167.699" cy="166.3" fill="#edebdc" r="92"/><g fill="#4c241d"><circle cx="239.765" cy="205.469" r="4.276"/><circle cx="67.765" cy="77.469" r="4.276"/><path d="m229.699 262.3c-7.719 0-14-6.281-14-14s6.281-14 14-14 14 6.281 14 14-6.281 14-14 14zm0-20c-3.309 0-6 2.691-6 6s2.691 6 6 6 6-2.691 6-6-2.691-6-6-6z"/></g><g><path d="m68.031 238.514c2.784 2.784 7.297 2.784 10.081 0l43.66-43.66c2.784-2.784 2.784-7.297 0-10.081l-12.547-12.547c-2.784-2.784-7.297-2.784-10.081 0l-43.66 43.66c-2.784 2.784-2.784 7.297 0 10.081l.616.616-5.657 5.657-8.485-2.828-5.657 5.657 22.627 22.627 5.657-5.657-2.828-8.485 5.657-5.657z" fill="#b5a19c"/><path d="m58.93 261.696c-1.023 0-2.047-.391-2.828-1.172l-22.629-22.627c-.75-.75-1.172-1.768-1.172-2.828 0-1.062.422-2.08 1.172-2.83l5.66-5.656c1.07-1.068 2.652-1.449 4.094-.965l6.137 2.047 1.395-1.393c-.891-1.619-1.363-3.445-1.363-5.344 0-2.975 1.16-5.77 3.262-7.871l43.66-43.658c4.328-4.334 11.387-4.344 15.738-.002l12.547 12.549c4.336 4.338 4.336 11.398 0 15.736l-43.66 43.66c-3.566 3.566-8.98 4.201-13.211 1.895l-1.395 1.396 2.043 6.141c.48 1.438.105 3.023-.965 4.094l-5.656 5.656c-.782.782-1.806 1.172-2.829 1.172zm-16.973-26.627 16.973 16.971 1.078-1.08-2.043-6.141c-.48-1.438-.105-3.023.965-4.094l5.656-5.656c1.562-1.562 4.094-1.562 5.656 0l.617.615c1.215 1.221 3.203 1.225 4.426 0l43.66-43.658c1.219-1.219 1.219-3.205 0-4.424l-12.547-12.547c-1.223-1.219-3.211-1.217-4.426.002l-43.66 43.658c-.59.592-.918 1.377-.918 2.213 0 .834.328 1.619.918 2.209l.617.619c1.562 1.562 1.562 4.094 0 5.656l-5.656 5.656c-1.07 1.07-2.656 1.451-4.094.967l-6.141-2.047z" fill="#4c241d"/></g><g><path d="m148.343 149.959 3.356-7.659-7.659 3.356c-8.206 3.596-15.913 8.902-22.51 15.499l-11.689 11.689 11.314 11.314 11.689-11.689c6.597-6.597 11.904-14.304 15.499-22.51z" fill="#b5a19c"/><path d="m121.156 188.157c-1.023 0-2.047-.391-2.828-1.172l-11.316-11.312c-.75-.75-1.172-1.768-1.172-2.828s.422-2.078 1.172-2.828l11.691-11.689c6.91-6.91 15.117-12.561 23.73-16.336l7.66-3.355c1.5-.66 3.266-.33 4.434.836 1.164 1.164 1.496 2.924.836 4.434l-3.355 7.66c-3.781 8.619-9.43 16.824-16.336 23.732l-11.688 11.688c-.781.78-1.804 1.17-2.828 1.17zm-5.66-15.312 5.66 5.656 8.859-8.859c5.73-5.732 10.492-12.445 13.852-19.512-7.059 3.357-13.773 8.119-19.508 13.854zm32.848-22.885h.039z" fill="#4c241d"/></g><path d="m79.699 210.3c-1.023 0-2.047-.391-2.828-1.172-1.562-1.562-1.562-4.094 0-5.656l16-16c1.562-1.562 4.094-1.562 5.656 0s1.562 4.094 0 5.656l-16 16c-.781.781-1.804 1.172-2.828 1.172z" fill="#fff"/><g><path d="m64.031 154.514c2.784 2.784 7.297 2.784 10.081 0l43.66-43.66c2.784-2.784 2.784-7.297 0-10.081l-12.547-12.547c-2.784-2.784-7.297-2.784-10.081 0l-43.66 43.66c-2.784 2.784-2.784 7.297 0 10.081l.616.616-5.657 5.657-8.485-2.828-5.657 5.657 22.627 22.627 5.657-5.657-2.828-8.485 5.657-5.657z" fill="#b5a19c"/><path d="m54.93 177.696c-1.023 0-2.047-.391-2.828-1.172l-22.629-22.627c-.75-.75-1.172-1.768-1.172-2.828 0-1.062.422-2.08 1.172-2.83l5.66-5.656c1.07-1.068 2.652-1.447 4.094-.965l6.137 2.047 1.395-1.393c-.891-1.619-1.363-3.445-1.363-5.344 0-2.975 1.16-5.77 3.262-7.871l43.66-43.658c4.332-4.336 11.391-4.342 15.738-.002l12.547 12.549c4.336 4.338 4.336 11.398 0 15.736l-43.66 43.66c-3.566 3.564-8.98 4.205-13.211 1.895l-1.395 1.396 2.043 6.141c.48 1.438.105 3.023-.965 4.094l-5.656 5.656c-.782.782-1.806 1.172-2.829 1.172zm-16.973-26.627 16.973 16.971 1.078-1.08-2.043-6.141c-.48-1.438-.105-3.023.965-4.094l5.656-5.656c1.562-1.562 4.094-1.562 5.656 0l.617.615c1.215 1.219 3.203 1.227 4.426 0l43.66-43.658c1.219-1.219 1.219-3.205 0-4.424l-12.547-12.547c-1.219-1.221-3.207-1.215-4.426.002l-43.66 43.658c-.59.592-.918 1.377-.918 2.213 0 .834.328 1.619.918 2.209l.617.619c1.562 1.562 1.562 4.094 0 5.656l-5.656 5.656c-1.07 1.072-2.656 1.447-4.094.967l-6.141-2.047z" fill="#4c241d"/></g><g><path d="m144.343 65.959 3.356-7.659-7.659 3.356c-8.206 3.596-15.913 8.902-22.51 15.499l-11.689 11.689 11.314 11.314 11.689-11.689c6.597-6.597 11.904-14.304 15.499-22.51z" fill="#b5a19c"/><path d="m117.156 104.157c-1.023 0-2.047-.391-2.828-1.172l-11.316-11.312c-.75-.75-1.172-1.768-1.172-2.828s.422-2.078 1.172-2.828l11.691-11.689c6.91-6.91 15.117-12.561 23.73-16.336l7.66-3.355c1.5-.662 3.27-.33 4.434.836 1.164 1.164 1.496 2.924.836 4.434l-3.355 7.66c-3.781 8.619-9.43 16.824-16.336 23.732l-11.688 11.688c-.781.78-1.804 1.17-2.828 1.17zm-5.66-15.312 5.66 5.656 8.859-8.859c5.73-5.732 10.492-12.445 13.852-19.512-7.059 3.357-13.773 8.119-19.508 13.854zm32.848-22.885h.039z" fill="#4c241d"/></g><path d="m75.699 126.3c-1.023 0-2.047-.391-2.828-1.172-1.562-1.562-1.562-4.094 0-5.656l16-16c1.562-1.562 4.094-1.562 5.656 0s1.562 4.094 0 5.656l-16 16c-.781.781-1.804 1.172-2.828 1.172z" fill="#fff"/><g><path d="m152.031 250.514c2.784 2.784 7.297 2.784 10.081 0l43.66-43.66c2.784-2.784 2.784-7.297 0-10.081l-12.547-12.547c-2.784-2.784-7.297-2.784-10.081 0l-43.66 43.66c-2.784 2.784-2.784 7.297 0 10.081l.616.616-5.657 5.657-8.485-2.828-5.657 5.657 22.627 22.627 5.657-5.657-2.828-8.485 5.657-5.657z" fill="#b5a19c"/><path d="m142.93 273.696c-1.023 0-2.047-.391-2.828-1.172l-22.629-22.627c-.75-.75-1.172-1.768-1.172-2.828 0-1.062.422-2.08 1.172-2.83l5.66-5.656c1.07-1.07 2.66-1.445 4.094-.965l6.137 2.047 1.395-1.393c-.891-1.619-1.363-3.445-1.363-5.344 0-2.975 1.16-5.77 3.262-7.871l43.66-43.658c4.332-4.334 11.391-4.342 15.738-.002l12.547 12.549c4.336 4.338 4.336 11.398 0 15.736l-43.66 43.66c-3.57 3.564-8.98 4.205-13.211 1.895l-1.395 1.396 2.043 6.141c.48 1.438.105 3.023-.965 4.094l-5.656 5.656c-.782.782-1.806 1.172-2.829 1.172zm-16.973-26.627 16.973 16.971 1.078-1.08-2.043-6.141c-.48-1.438-.105-3.023.965-4.094l5.656-5.656c1.562-1.562 4.094-1.562 5.656 0l.617.615c1.215 1.221 3.203 1.225 4.426 0l43.66-43.658c1.219-1.219 1.219-3.205 0-4.424l-12.547-12.547c-1.219-1.219-3.207-1.217-4.426.002l-43.66 43.658c-.59.592-.918 1.377-.918 2.213 0 .834.328 1.619.918 2.209l.617.619c1.562 1.562 1.562 4.094 0 5.656l-5.656 5.656c-1.07 1.07-2.66 1.449-4.094.967l-6.141-2.047z" fill="#4c241d"/></g><g><path d="m232.343 161.959 3.356-7.659-7.659 3.356c-8.206 3.596-15.913 8.902-22.51 15.499l-11.689 11.689 11.314 11.314 11.689-11.689c6.597-6.597 11.904-14.304 15.499-22.51z" fill="#b5a19c"/><path d="m205.156 200.157c-1.023 0-2.047-.391-2.828-1.172l-11.316-11.312c-.75-.75-1.172-1.768-1.172-2.828s.422-2.078 1.172-2.828l11.691-11.689c6.91-6.91 15.117-12.561 23.73-16.336l7.66-3.355c1.504-.658 3.27-.33 4.434.836 1.164 1.164 1.496 2.924.836 4.434l-3.355 7.66c-3.781 8.619-9.43 16.824-16.336 23.732l-11.688 11.688c-.781.78-1.804 1.17-2.828 1.17zm-5.66-15.312 5.66 5.656 8.859-8.859c5.73-5.732 10.492-12.445 13.852-19.512-7.059 3.357-13.773 8.119-19.508 13.854zm32.848-22.885h.039z" fill="#4c241d"/></g><path d="m163.699 222.3c-1.023 0-2.047-.391-2.828-1.172-1.562-1.562-1.562-4.094 0-5.656l16-16c1.562-1.562 4.094-1.562 5.656 0s1.562 4.094 0 5.656l-16 16c-.781.781-1.804 1.172-2.828 1.172z" fill="#fff"/><g><circle cx="211.699" cy="86.3" fill="#e66353" r="37.334"/><path d="m211.699 127.634c-22.793 0-41.336-18.543-41.336-41.334s18.543-41.334 41.336-41.334 41.336 18.543 41.336 41.334-18.543 41.334-41.336 41.334zm0-74.668c-18.383 0-33.336 14.953-33.336 33.334s14.953 33.334 33.336 33.334 33.336-14.953 33.336-33.334-14.953-33.334-33.336-33.334z" fill="#4c241d"/></g><path d="m203.797 145.745c-.184 0-.375-.012-.562-.039-5.676-.801-11.191-2.41-16.395-4.785-2.012-.916-2.895-3.289-1.98-5.299.918-2.006 3.285-2.896 5.301-1.979 4.504 2.055 9.277 3.447 14.191 4.141 2.188.309 3.711 2.332 3.402 4.52-.281 1.998-1.996 3.441-3.957 3.441zm15.918-.018c-1.957 0-3.668-1.438-3.957-3.432-.312-2.188 1.207-4.215 3.395-4.527 4.91-.705 9.684-2.107 14.184-4.172 2.027-.912 4.391-.035 5.305 1.971.922 2.008.039 4.383-1.969 5.303-5.203 2.383-10.715 4.004-16.387 4.816-.192.028-.384.041-.571.041zm-44.625-13.05c-.93 0-1.859-.32-2.617-.975-4.328-3.742-8.098-8.074-11.199-12.875-1.199-1.855-.668-4.332 1.188-5.531 1.855-1.205 4.328-.666 5.531 1.188 2.691 4.164 5.961 7.922 9.715 11.168 1.672 1.445 1.852 3.971.41 5.643-.794.913-1.907 1.382-3.028 1.382zm73.301-.075c-1.117 0-2.23-.467-3.02-1.379-1.449-1.668-1.27-4.193.398-5.643 3.75-3.254 7.012-7.02 9.695-11.188 1.199-1.857 3.672-2.393 5.527-1.197 1.859 1.195 2.395 3.672 1.199 5.529-3.094 4.805-6.855 9.145-11.18 12.898-.756.658-1.69.98-2.619.98zm-90.411-26.421c-1.73 0-3.32-1.129-3.836-2.869-1.613-5.461-2.438-11.143-2.449-16.889-.004-2.209 1.781-4.004 3.992-4.008h.008c2.207 0 3.996 1.785 4 3.992.012 4.982.723 9.908 2.121 14.639.625 2.119-.586 4.344-2.703 4.969-.379.111-.758.166-1.133.166zm107.469-.112c-.371 0-.75-.053-1.125-.164-2.121-.619-3.336-2.842-2.715-4.963 1.387-4.732 2.09-9.658 2.09-14.643 0-2.209 1.789-4.115 4-4.115s4 1.678 4 3.887v.229c0 5.746-.812 11.428-2.41 16.893-.512 1.743-2.109 2.876-3.84 2.876zm-107.531-31.427c-.367 0-.742-.053-1.117-.16-2.121-.617-3.34-2.838-2.723-4.959 1.594-5.482 3.969-10.713 7.062-15.543 1.184-1.863 3.656-2.41 5.523-1.213 1.859 1.191 2.402 3.664 1.211 5.525-2.676 4.186-4.734 8.715-6.117 13.465-.507 1.748-2.105 2.885-3.839 2.885zm107.465-.329c-1.727 0-3.316-1.125-3.832-2.861-1.414-4.744-3.5-9.262-6.203-13.426-1.203-1.854-.676-4.33 1.18-5.533 1.848-1.199 4.328-.676 5.531 1.178 3.121 4.807 5.527 10.021 7.156 15.5.633 2.117-.574 4.344-2.691 4.975-.379.113-.766.167-1.141.167zm-90.465-26.242c-1.113 0-2.223-.465-3.016-1.371-1.453-1.666-1.277-4.193.387-5.645 4.32-3.766 9.145-6.887 14.328-9.277 2.016-.93 4.383-.045 5.309 1.959.926 2.006.047 4.383-1.957 5.307-4.496 2.07-8.676 4.777-12.422 8.043-.758.66-1.695.984-2.629.984zm73.305-.224c-.926 0-1.855-.318-2.609-.969-3.77-3.244-7.961-5.924-12.469-7.967-2.012-.912-2.902-3.281-1.992-5.295.914-2.006 3.281-2.908 5.297-1.99 5.199 2.355 10.039 5.449 14.383 9.189 1.676 1.441 1.863 3.967.422 5.641-.794.92-1.911 1.391-3.032 1.391zm-44.664-12.959c-1.957 0-3.664-1.434-3.953-3.424-.32-2.186 1.195-4.217 3.379-4.535 5.586-.811 11.449-.838 17.062-.051 2.188.305 3.711 2.326 3.406 4.514-.301 2.186-2.316 3.727-4.516 3.408-4.867-.68-9.953-.66-14.797.047-.195.027-.39.041-.581.041z" fill="#4c241d"/><path d="m211.699 94.981c-2.211 0-4-1.791-4-4v-22.045c0-2.209 1.789-4 4-4s4 1.791 4 4v22.045c0 2.209-1.789 4-4 4z" fill="#4c241d"/><circle cx="211.699" cy="104.005" fill="#4c241d" r="4.341"/></g></svg>