<svg id="Layer_3" enable-background="new 0 0 64 64" height="512" viewBox="0 0 64 64" width="512" xmlns="http://www.w3.org/2000/svg"><g><g><path d="m32.41 49.495-.804-1.832c1.453-.639 2.393-2.077 2.393-3.665 0-.872-.275-1.701-.798-2.397l1.601-1.2c.783 1.046 1.197 2.29 1.197 3.597 0 2.382-1.408 4.539-3.589 5.497z" fill="#606060"/></g><path d="m40 36c2.617 2.617 5.897 4.474 9.488 5.372l2.512.628-4 4-1.911-.546c-3.337-.953-6.376-2.742-8.831-5.196l-.372-.348" fill="#398469"/><path d="m34 27-3 3 3 3 3-3" fill="#398469"/><g><path d="m20.417 36.411-1.417-1.41 6.565-6.598c.565-.569 1.319-.883 2.122-.884h.005c.801 0 1.554.312 2.121.878l1.394 1.396-1.414 1.414-1.395-1.396c-.188-.188-.439-.292-.707-.292h-.001c-.268 0-.519.105-.707.295z" fill="#398469"/></g><path d="m47.447 9.836h10.607v2.828h-10.607z" fill="#60b69c" transform="matrix(.707 -.707 .707 .707 7.495 40.595)"/><path d="m46.293 13.707-12.567 12.567c-.398.398-.389 1.046.019 1.433l2.843 2.695c.397.377 1.023.364 1.405-.028l12.32-12.666c.381-.392.377-1.018-.01-1.404l-2.596-2.596c-.39-.391-1.024-.391-1.414-.001z" fill="#183e2e"/><path d="m55.672 3.379h5.657v4.243h-5.657z" fill="#183e2e" transform="matrix(.707 -.707 .707 .707 13.245 42.977)"/><g><path d="m45.516 14.664h2.001v5.707h-2.001z" fill="#398469" transform="matrix(.707 -.707 .707 .707 1.238 38.022)"/></g><g><path d="m42.537 17.655h2.001v5.766h-2.001z" fill="#398469" transform="matrix(.707 -.707 .707 .707 -1.77 36.803)"/></g><g><path d="m39.557 20.646h2.001v5.824h-2.001z" fill="#398469" transform="matrix(.707 -.707 .707 .707 -4.779 35.579)"/></g><g><path d="m36.578 23.638h2.001v5.883h-2.001z" fill="#398469" transform="matrix(.707 -.707 .707 .707 -7.787 34.36)"/></g><path d="m31 30-12 12 3 3 12-12" fill="#60b69c"/><path d="m22 45 3 3 4-4c2.561 0 5.017-1.017 6.828-2.828l4.583-5.47c.333-.397.307-.983-.059-1.349l-3.852-3.853" fill="#183e2e"/><path d="m25 48 8 8 4-4-8-8" fill="#398469"/><path d="m24 37-2-2h-3l-2 2v3l2 2" fill="#183e2e"/><g><path d="m19.748 37.689h2.001v2.121h-2.001z" fill="#398469" transform="matrix(.707 -.707 .707 .707 -21.323 26.021)"/></g><path d="m19 42-15.429 8.168c-.967.512-1.571 1.516-1.571 2.609 0 .783.311 1.534.865 2.087l6.13 6.13c.643.644 1.516 1.006 2.427 1.006 1.002 0 1.954-.438 2.606-1.198l10.972-12.802" fill="#398469"/><path d="m19.324 45.12c0-1.068-.124-2.107-.344-3.109l-15.409 8.157c-.967.512-1.571 1.516-1.571 2.609 0 .783.311 1.534.865 2.087l4.474 4.474c6.803-1.168 11.985-7.081 11.985-14.218z" fill="#60b69c"/><path d="m55.135 5.865c.639.396 1.386.635 2.192.635 1.67 0 3.101-.985 3.772-2.4l-2.099-2.1z" fill="#398469"/></g></svg>