<svg id="Layer_3" enable-background="new 0 0 64 64" height="512" viewBox="0 0 64 64" width="512" xmlns="http://www.w3.org/2000/svg"><g><path d="m61 28h-10v-21c0-2.761 2.239-5 5-5 2.761 0 5 2.239 5 5z" fill="#398469"/><path d="m58.496 11.744c0-3.566-1.021-6.886-2.76-9.717-2.636.14-4.736 2.302-4.736 4.973v19.648c4.542-3.394 7.496-8.797 7.496-14.904z" fill="#60b69c"/><path d="m52 33-2 5v4h12v-4l-2-5" fill="#183e2e"/><path d="m51 8h10v4h-10z" fill="#183e2e"/><path d="m61 8h-10v-1c0-2.761 2.239-5 5-5 2.761 0 5 2.239 5 5z" fill="#cbc3b6"/><path d="m51 28v3l3 6h4l3-6v-3" fill="#60b69c"/><path d="m50 42v4h12v-4" fill="#cbc3b6"/><path d="m54 28v-8c0-1.105.895-2 2-2 1.105 0 2 .895 2 2v8" fill="#183e2e"/><path d="m55.736 2.027c-2.636.14-4.736 2.302-4.736 4.973v1h7.119c-.44-2.154-1.269-4.16-2.383-5.973z" fill="#d5cec2"/><g fill="#398469"><path d="m51 12h7.483c.001-.086.013-.17.013-.256 0-1.282-.13-2.534-.377-3.744h-7.119z"/><path d="m57.235 18.438c-.341-.27-.766-.438-1.235-.438-1.105 0-2 .895-2 2v3.855c1.369-1.595 2.465-3.423 3.235-5.417z"/><path d="m42 40v-17.194c0-6.995-2.381-13.782-6.751-19.244-.789-.987-1.985-1.562-3.249-1.562-1.264 0-2.46.575-3.249 1.562-4.37 5.462-6.751 12.249-6.751 19.244v17.194z"/></g><path d="m22 35.344c7.391-6.028 12.113-15.203 12.113-25.484 0-2.638-.319-5.199-.906-7.657-.39-.12-.791-.203-1.207-.203-1.264 0-2.46.575-3.249 1.562-4.37 5.462-6.751 12.249-6.751 19.244z" fill="#60b69c"/><path d="m15 56h34v4h-34z" fill="#e7e4dd"/><path d="m22 46-7 7v3h34v-3l-7-7z" fill="#60b69c"/><path d="m40.9 14.649c-2.625 1.496-5.662 2.351-8.9 2.351s-6.275-.855-8.9-2.351c.361-1.316.81-2.606 1.342-3.863 2.18 1.401 4.774 2.214 7.558 2.214s5.378-.813 7.558-2.214c.533 1.257.981 2.547 1.342 3.863z" fill="#183e2e"/><path d="m39.558 10.786c-2.18 1.401-4.774 2.214-7.558 2.214s-5.378-.813-7.558-2.213c1.092-2.576 2.537-5.009 4.309-7.225.789-.987 1.985-1.562 3.249-1.562 1.264 0 2.46.575 3.249 1.562 1.773 2.215 3.218 4.648 4.309 7.224z" fill="#cbc3b6"/><path d="m13 28h-10v-21c0-2.761 2.239-5 5-5 2.761 0 5 2.239 5 5z" fill="#398469"/><path d="m10.496 11.744c0-3.566-1.021-6.886-2.76-9.717-2.636.14-4.736 2.302-4.736 4.973v19.648c4.542-3.394 7.496-8.797 7.496-14.904z" fill="#60b69c"/><path d="m4 33-2 5v4h12v-4l-2-5" fill="#183e2e"/><path d="m3 8h10v4h-10z" fill="#183e2e"/><path d="m13 8h-10v-1c0-2.761 2.239-5 5-5 2.761 0 5 2.239 5 5z" fill="#cbc3b6"/><path d="m22 40v4h20v-4" fill="#183e2e"/><path d="m22 44c0 3.929 1.043 7.788 3.023 11.183l3.977 6.817h6l3.977-6.817c1.98-3.395 3.023-7.254 3.023-11.183" fill="#398469"/><path d="m3 28v3l3 6h4l3-6v-3" fill="#60b69c"/><path d="m2 42v4h12v-4" fill="#cbc3b6"/><path d="m11 53c0-1.657-.895-3-2-3-.366 0-.705.158-1 .416-.295-.258-.634-.416-1-.416-1.105 0-2 1.343-2 3 0 1.224.49 2.273 1.191 2.739-.12.385-.191.809-.191 1.261 0 1.657.895 3 2 3s2-1.343 2-3c0-.452-.071-.876-.191-1.261.701-.466 1.191-1.515 1.191-2.739z" fill="#d5cec2"/><path d="m59 53c0-1.657-.895-3-2-3-.366 0-.705.158-1 .416-.295-.258-.634-.416-1-.416-1.105 0-2 1.343-2 3 0 1.224.49 2.273 1.191 2.739-.12.385-.191.809-.191 1.261 0 1.657.895 3 2 3s2-1.343 2-3c0-.452-.071-.876-.191-1.261.701-.466 1.191-1.515 1.191-2.739z" fill="#d5cec2"/><path d="m6 28v-8c0-1.105.895-2 2-2 1.105 0 2 .895 2 2v8" fill="#183e2e"/><path d="m32 36c-1.657 0-3-1.343-3-3v-9c0-1.657 1.343-3 3-3 1.657 0 3 1.343 3 3v9c0 1.657-1.343 3-3 3z" fill="#183e2e"/><path d="m7.736 2.027c-2.636.14-4.736 2.302-4.736 4.973v1h7.119c-.44-2.154-1.269-4.16-2.383-5.973z" fill="#d5cec2"/><path d="m3 12h7.483c.001-.086.013-.17.013-.256 0-1.282-.13-2.534-.377-3.744h-7.119z" fill="#398469"/><path d="m9.235 18.438c-.341-.27-.766-.438-1.235-.438-1.105 0-2 .895-2 2v3.855c1.369-1.595 2.465-3.423 3.235-5.417z" fill="#398469"/><path d="m33.207 2.202c-.39-.119-.791-.202-1.207-.202-1.264 0-2.46.575-3.249 1.562-1.772 2.215-3.217 4.648-4.309 7.225 2.18 1.4 4.774 2.213 7.558 2.213.669 0 1.326-.049 1.97-.14.09-.989.142-1.988.142-3.001.001-2.637-.319-5.199-.905-7.657z" fill="#d5cec2"/><path d="m32 13c-2.784 0-5.378-.813-7.558-2.214-.532 1.256-.981 2.547-1.342 3.863 2.625 1.496 5.663 2.351 8.9 2.351.45 0 .896-.02 1.338-.053.293-1.334.507-2.698.632-4.087-.644.091-1.301.14-1.97.14z" fill="#398469"/><path d="m32.167 21.017c-.056-.003-.11-.017-.167-.017-1.657 0-3 1.343-3 3v3.456c1.277-2.01 2.346-4.164 3.167-6.439z" fill="#398469"/><g><path d="m29 27h6v2h-6z" fill="#60b69c"/></g></g></svg>