<svg id="Layer_1" height="512" viewBox="0 0 512 512" width="512" xmlns="http://www.w3.org/2000/svg" data-name="Layer 1"><path d="m354.62 195.72-77.23-102.46-.4-.08h-180.16v367.39h257.81v-264.36z" fill="#678dba"/><path d="m96.83 93.18h30v367.39h-30z" fill="#90b8e0"/><path d="m84.68 58.62a17.28 17.28 0 1 0 0 34.56h192.31l.4.08 3.58-34.64z" fill="#5b7baa"/><path d="m366.8 460.57h-282.12a17.28 17.28 0 1 0 0 34.56h282.12a17.28 17.28 0 0 0 0-34.56z" fill="#5b7baa"/><path d="m366.8 259.6h-282.12a17.275 17.275 0 1 0 0 34.55h282.12a17.275 17.275 0 1 0 0-34.55z" fill="#5b7baa"/><path d="m350.12 16.87a94.479 94.479 0 0 1 4.5 188.85c-1.49.07-2.99.11-4.5.11a94.48 94.48 0 1 1 0-188.96z" fill="#fb6771"/><path d="m386.8 110.16a42.505 42.505 0 1 1 -73.35 0l36.67-62.6z" fill="#fadf4a"/><path d="m337.62 131.63a42.413 42.413 0 0 1 5.83-21.47l21.672-37-15-25.6-36.67 62.6a42.5 42.5 0 0 0 51.675 61.253 42.5 42.5 0 0 1 -27.5-39.783z" fill="#edcf54"/><path d="m285.65 111.35a94.465 94.465 0 0 1 79.455-93.293 94.58 94.58 0 0 0 -93.615 40.9 94.5 94.5 0 0 0 78.63 146.87c1.51 0 3.01-.04 4.5-.11a95.053 95.053 0 0 0 10.482-1.083 94.5 94.5 0 0 1 -79.452-93.284z" fill="#e75163"/><g fill="#678dba"><path d="m84.68 93.18h30a17.28 17.28 0 1 1 0-34.56h-30a17.28 17.28 0 1 0 0 34.56z"/><path d="m97.4 477.85a17.276 17.276 0 0 1 17.28-17.28h-30a17.28 17.28 0 1 0 0 34.56h30a17.278 17.278 0 0 1 -17.28-17.28z"/><path d="m84.68 294.15h30a17.275 17.275 0 1 1 0-34.55h-30a17.275 17.275 0 1 0 0 34.55z"/></g><path d="m357.836 154.7a6 6 0 0 1 -1.951-11.675 17.686 17.686 0 0 0 11.549-13.2 6 6 0 0 1 11.766 2.375 29.68 29.68 0 0 1 -19.408 22.171 5.98 5.98 0 0 1 -1.956.329z" fill="#f4f8fc"/><path d="m139.465 336.8a6 6 0 0 1 -6-6v-5.828a6 6 0 0 1 12 0v5.828a6 6 0 0 1 -6 6z" fill="#f4f8fc"/><path d="m139.465 444.237a6 6 0 0 1 -6-6v-88.523a6 6 0 0 1 12 0v88.523a6 6 0 0 1 -6 6z" fill="#f4f8fc"/></svg>