<svg id="Capa_1" enable-background="new 0 0 497 497" height="512" viewBox="0 0 497 497" width="512" xmlns="http://www.w3.org/2000/svg"><g><path d="m7.867 289.671 49.506-11.319-5.617 87.359-43.889-10.38c-4.612-1.074-7.867-5.099-7.867-9.73v-46.203c0-4.63 3.255-8.655 7.867-9.727z" fill="#9b9696"/><path d="m489.133 289.671-44.697-11.319 2.553 87.359 42.144-10.38c4.612-1.073 7.867-5.097 7.867-9.728v-46.203c0-4.632-3.255-8.657-7.867-9.729z" fill="#9b9696"/><path d="m25.5 176h446v-92.632c0-13.734-8.954-24.868-20-24.868h-406c-11.046 0-20 11.134-20 24.868z" fill="#ccf49f"/><path d="m66.5 58.5c-11.05 0-20 11.13-20 24.87v92.63h-21v-92.63c0-13.74 8.95-24.87 20-24.87z" fill="#b3e59f"/><path d="m57.37 278.35-5.61 87.36-26.26-6.21v-73.86z" fill="#736e6e"/><path d="m471.5 285.2v74.47l-24.51 6.04-2.55-87.36z" fill="#736e6e"/><path d="m42.5 176h412v259c0 11.046-8.954 20-20 20h-372c-11.046 0-20-8.954-20-20z" fill="#ccf49f"/><g fill="#9b9696"><path d="m101.5 123h-23c-5.523 0-10-4.477-10-10v-61c0-5.523 4.477-10 10-10h23c5.523 0 10 4.477 10 10v61c0 5.523-4.477 10-10 10z"/><path d="m418.5 123h-23c-5.523 0-10-4.477-10-10v-61c0-5.523 4.477-10 10-10h23c5.523 0 10 4.477 10 10v61c0 5.523-4.477 10-10 10z"/><path d="m313.5 123h-23c-5.523 0-10-4.477-10-10v-61c0-5.523 4.477-10 10-10h23c5.523 0 10 4.477 10 10v61c0 5.523-4.477 10-10 10z"/><path d="m206.5 123h-23c-5.523 0-10-4.477-10-10v-61c0-5.523 4.477-10 10-10h23c5.523 0 10 4.477 10 10v61c0 5.523-4.477 10-10 10z"/></g><path d="m98.5 123h-20c-5.52 0-10-4.48-10-10v-61c0-5.52 4.48-10 10-10h20c-5.52 0-10 4.48-10 10v61c0 5.52 4.48 10 10 10z" fill="#736e6e"/><path d="m415.5 123h-20c-5.52 0-10-4.48-10-10v-61c0-5.52 4.48-10 10-10h20c-5.52 0-10 4.48-10 10v61c0 5.52 4.48 10 10 10z" fill="#736e6e"/><path d="m310.5 123h-20c-5.52 0-10-4.48-10-10v-61c0-5.52 4.48-10 10-10h20c-5.52 0-10 4.48-10 10v61c0 5.52 4.48 10 10 10z" fill="#736e6e"/><path d="m203.5 123h-20c-5.52 0-10-4.48-10-10v-61c0-5.52 4.48-10 10-10h20c-5.52 0-10 4.48-10 10v61c0 5.52 4.48 10 10 10z" fill="#736e6e"/><g><g fill="#9b9696"><path d="m294.307 255.84-18.532 32.102c-1.301 2.254-4.109 3.123-6.463 2.013-6.319-2.98-13.377-4.647-20.812-4.647-7.152 0-13.957 1.54-20.089 4.309-2.346 1.059-5.109.184-6.396-2.045l-18.548-32.129c-1.445-2.504-.465-5.692 2.119-6.989 12.922-6.49 27.502-10.145 42.914-10.145 15.736 0 30.603 3.812 43.724 10.561 2.557 1.314 3.521 4.48 2.083 6.97z"/><path d="m344.361 339.511c-1.677 31.24-18.358 58.554-42.957 74.854-2.417 1.602-5.681.863-7.13-1.648l-18.547-32.128c-1.283-2.222-.67-5.046 1.409-6.548 11.177-8.072 18.827-20.739 20.157-35.213.236-2.564 2.393-4.522 4.968-4.522h37.102c2.842.002 5.15 2.368 4.998 5.205z"/><path d="m221.984 381.099-18.532 32.101c-1.441 2.497-4.677 3.24-7.095 1.671-25.012-16.235-42.023-43.795-43.718-75.357-.152-2.838 2.155-5.205 4.997-5.205h37.099c2.596 0 4.736 1.989 4.976 4.574 1.369 14.729 9.28 27.583 20.798 35.624 2.129 1.484 2.772 4.344 1.475 6.592z"/></g><g><path d="m248.5 360.808c-14.612 0-26.5-11.888-26.5-26.5s11.888-26.5 26.5-26.5 26.5 11.888 26.5 26.5-11.888 26.5-26.5 26.5z" fill="#9b9696"/></g></g><g><g fill="#736e6e"><path d="m241.32 285.84c-4.54.66-8.87 1.95-12.91 3.78-2.34 1.06-5.11.18-6.39-2.05l-18.55-32.13c-1.45-2.5-.47-5.69 2.12-6.99 3.41-1.72 6.94-3.23 10.57-4.52z"/><path d="m310.24 407.76c-2.81 2.36-5.76 4.57-8.84 6.61-2.41 1.6-5.68.86-7.13-1.65l-18.54-32.13c-1.29-2.22-.67-5.05 1.41-6.55 3.31-2.4 6.32-5.2 8.93-8.33z"/><path d="m208.85 403.85-5.4 9.35c-1.44 2.5-4.67 3.24-7.09 1.67-25.02-16.24-42.03-43.79-43.72-75.36-.15-2.83 2.15-5.2 5-5.2h9.38c3 28.92 18.9 54.05 41.83 69.54z"/></g><g><path d="m268.5 340.81c-14.61 0-26.5-11.89-26.5-26.5 0-2.01.22-3.96.66-5.84-11.81 2.66-20.66 13.24-20.66 25.84 0 14.61 11.89 26.5 26.5 26.5 12.61 0 23.19-8.85 25.84-20.66-1.88.44-3.83.66-5.84.66z" fill="#736e6e"/></g></g><path d="m454.5 223v-47h-387-25v47 212c0 11.046 8.954 20 20 20h372c11.046 0 20-8.954 20-20v-4h-367c-11.046 0-20-8.954-20-20v-177c0-6.075 4.925-11 11-11z" fill="#b3e59f"/><path d="m24 199h449c5.523 0 10-4.477 10-10v-26c0-5.523-4.477-10-10-10h-449c-5.523 0-10 4.477-10 10v26c0 5.523 4.477 10 10 10z" fill="#9b9696"/><path d="m48 199h-24c-5.52 0-10-4.48-10-10v-26c0-5.52 4.48-10 10-10h24c-5.52 0-10 4.48-10 10v26c0 5.52 4.48 10 10 10z" fill="#736e6e"/></g></svg>