<svg id="Flat" height="512" viewBox="0 0 512 512" width="512" xmlns="http://www.w3.org/2000/svg"><path d="m24 468c38.666 0 38.666 20 77.331 20s38.669-20 77.332-20 38.665 20 77.331 20 38.666-20 77.333-20 38.673 20 77.336 20 38.669-20 77.337-20" fill="#fff"/><path d="m256 424v-32s-16-32-64-32c0 0 8 64 64 64z" fill="#e09f2c"/><path d="m256 376v-32s-16-32-64-32c0 0 8 64 64 64z" fill="#f7b030"/><path d="m256 328v-32s-16-32-64-32c0 0 8 64 64 64z" fill="#e09f2c"/><path d="m256 280v-32s-16-32-64-32c0 0 8 64 64 64z" fill="#f7b030"/><path d="m256 232v-32s-16-32-64-32c0 0 8 64 64 64z" fill="#e09f2c"/><path d="m256 184v-32s-16-32-64-32c0 0 8 64 64 64z" fill="#f7b030"/><path d="m256 136v-32s-16-32-64-32c0 0 8 64 64 64z" fill="#e09f2c"/><path d="m256 88v-32s-16-32-64-32c0 0 8 64 64 64z" fill="#f7b030"/><path d="m256 424v-32s16-32 64-32c0 0-8 64-64 64z" fill="#f7b030"/><path d="m256 376v-32s16-32 64-32c0 0-8 64-64 64z" fill="#e09f2c"/><path d="m256 328v-32s16-32 64-32c0 0-8 64-64 64z" fill="#f7b030"/><path d="m256 280v-32s16-32 64-32c0 0-8 64-64 64z" fill="#e09f2c"/><path d="m256 232v-32s16-32 64-32c0 0-8 64-64 64z" fill="#f7b030"/><path d="m256 184v-32s16-32 64-32c0 0-8 64-64 64z" fill="#e09f2c"/><path d="m256 136v-32s16-32 64-32c0 0-8 64-64 64z" fill="#f7b030"/><path d="m256 88v-32s16-32 64-32c0 0-8 64-64 64z" fill="#e09f2c"/><path d="m424 440v-32s-16-32-64-32c0 0 8 64 64 64z" fill="#f7b030"/><path d="m424 392v-32s-16-32-64-32c0 0 8 64 64 64z" fill="#e09f2c"/><path d="m424 344v-32s-16-32-64-32c0 0 8 64 64 64z" fill="#f7b030"/><path d="m424 296v-32s-16-32-64-32c0 0 8 64 64 64z" fill="#e09f2c"/><path d="m424 248v-32s-16-32-64-32c0 0 8 64 64 64z" fill="#f7b030"/><path d="m424 200v-32s-16-32-64-32c0 0 8 64 64 64z" fill="#e09f2c"/><path d="m424 152v-32s-16-32-64-32c0 0 8 64 64 64z" fill="#f7b030"/><path d="m424 440v-32s16-32 64-32c0 0-8 64-64 64z" fill="#e09f2c"/><path d="m424 392v-32s16-32 64-32c0 0-8 64-64 64z" fill="#f7b030"/><path d="m424 344v-32s16-32 64-32c0 0-8 64-64 64z" fill="#e09f2c"/><path d="m424 296v-32s16-32 64-32c0 0-8 64-64 64z" fill="#f7b030"/><path d="m424 248v-32s16-32 64-32c0 0-8 64-64 64z" fill="#e09f2c"/><path d="m424 200v-32s16-32 64-32c0 0-8 64-64 64z" fill="#f7b030"/><path d="m424 152v-32s16-32 64-32c0 0-8 64-64 64z" fill="#e09f2c"/><path d="m88 440v-32s16-32 64-32c0 0-8 64-64 64z" fill="#e09f2c"/><path d="m88 392v-32s16-32 64-32c0 0-8 64-64 64z" fill="#f7b030"/><path d="m88 344v-32s16-32 64-32c0 0-8 64-64 64z" fill="#e09f2c"/><path d="m88 296v-32s16-32 64-32c0 0-8 64-64 64z" fill="#f7b030"/><path d="m88 248v-32s16-32 64-32c0 0-8 64-64 64z" fill="#e09f2c"/><path d="m88 200v-32s16-32 64-32c0 0-8 64-64 64z" fill="#f7b030"/><path d="m88 152v-32s16-32 64-32c0 0-8 64-64 64z" fill="#e09f2c"/><path d="m88 440v-32s-16-32-64-32c0 0 8 64 64 64z" fill="#f7b030"/><path d="m88 392v-32s-16-32-64-32c0 0 8 64 64 64z" fill="#e09f2c"/><path d="m88 344v-32s-16-32-64-32c0 0 8 64 64 64z" fill="#f7b030"/><path d="m88 296v-32s-16-32-64-32c0 0 8 64 64 64z" fill="#e09f2c"/><path d="m88 248v-32s-16-32-64-32c0 0 8 64 64 64z" fill="#f7b030"/><path d="m88 200v-32s-16-32-64-32c0 0 8 64 64 64z" fill="#e09f2c"/><path d="m88 152v-32s-16-32-64-32c0 0 8 64 64 64z" fill="#f7b030"/><g fill="#d49073"><path d="m88 480a8 8 0 0 0 8-8v-368a8 8 0 0 0 -16 0v368a8 8 0 0 0 8 8z"/><path d="m256 480a8 8 0 0 1 -8-8v-432a8 8 0 0 1 16 0v432a8 8 0 0 1 -8 8z"/><path d="m424 480a8 8 0 0 1 -8-8v-368a8 8 0 0 1 16 0v368a8 8 0 0 1 -8 8z"/></g><path d="m410.663 488c-21.28 0-32.471-5.788-42.343-10.894-9.447-4.886-17.605-9.106-34.993-9.106s-25.545 4.22-34.991 9.106c-9.873 5.106-21.063 10.894-42.342 10.894s-32.469-5.788-42.342-10.895c-9.445-4.885-17.6-9.105-34.989-9.105s-25.545 4.22-34.99 9.105c-9.873 5.107-21.063 10.895-42.342 10.895s-32.469-5.788-42.342-10.895c-9.445-4.885-17.603-9.105-34.989-9.105a8 8 0 0 1 0-16c21.279 0 32.469 5.788 42.341 10.894 9.445 4.886 17.6 9.106 34.99 9.106s25.545-4.22 34.99-9.105c9.873-5.107 21.063-10.895 42.342-10.895s32.469 5.788 42.341 10.894c9.445 4.886 17.6 9.106 34.99 9.106s25.544-4.22 34.99-9.105c9.873-5.107 21.063-10.895 42.343-10.895s32.471 5.788 42.343 10.894c9.447 4.886 17.6 9.106 34.993 9.106s25.547-4.22 34.994-9.106c9.872-5.106 21.063-10.894 42.343-10.894a8 8 0 0 1 0 16c-17.388 0-25.546 4.22-34.993 9.105-9.872 5.107-21.063 10.895-42.344 10.895z" fill="#95573a"/></svg>